<svg xmlns="http://www.w3.org/2000/svg" version="1.1" xmlns:xlink="http://www.w3.org/1999/xlink" xmlns:svgjs="http://svgjs.dev/svgjs" width="1000" height="1000"><g clip-path="url(#SvgjsClipPath1030)"><rect width="1000" height="1000" fill="#171923"></rect><g transform="matrix(7,0,0,7,150,150)"><svg xmlns="http://www.w3.org/2000/svg" version="1.1" xmlns:xlink="http://www.w3.org/1999/xlink" xmlns:svgjs="http://svgjs.dev/svgjs" width="100" height="100"><svg width="100" height="100" viewBox="0 0 100 100" fill="none" xmlns="http://www.w3.org/2000/svg">
<g clip-path="url(#clip0_1_10)">
<rect width="100" height="100" fill="white"></rect>
<rect width="100" height="100" fill="#2A2A2A"></rect>
<path d="M47 25C47 36.0457 38.0457 45 27 45C15.9543 45 7 36.0457 7 25C7 13.9543 15.9543 5 27 5C38.0457 5 47 13.9543 47 25Z" fill="#E53E3E"></path>
<path d="M93 25C93 36.0457 84.0457 45 73 45C61.9543 45 53 36.0457 53 25C53 13.9543 61.9543 5 73 5C84.0457 5 93 13.9543 93 25Z" fill="#D69E2E"></path>
<path d="M93 73C93 84.0457 84.0457 93 73 93C61.9543 93 53 84.0457 53 73C53 61.9543 61.9543 53 73 53C84.0457 53 93 61.9543 93 73Z" fill="#9F7AEA"></path>
<path d="M47 73C47 84.0457 38.0457 93 27 93C15.9543 93 7 84.0457 7 73C7 61.9543 15.9543 53 27 53C38.0457 53 47 61.9543 47 73Z" fill="#38A169"></path>
</g>
<defs>
<clipPath id="clip0_1_10">
<rect width="100" height="100" fill="white"></rect>
</clipPath>
<clipPath id="SvgjsClipPath1030"><rect width="1000" height="1000" x="0" y="0" rx="250" ry="250"></rect></clipPath></defs>
</svg></svg></g></g></svg>